<?xml version="1.0" standalone="no"?>
<!DOCTYPE svg PUBLIC "-//W3C//DTD SVG 20010904//EN"
 "http://www.w3.org/TR/2001/REC-SVG-20010904/DTD/svg10.dtd">
<svg version="1.0" xmlns="http://www.w3.org/2000/svg"
 width="349.000000pt" height="349.000000pt" viewBox="0 0 349.000000 349.000000"
 preserveAspectRatio="xMidYMid meet">

<g transform="translate(0.000000,349.000000) scale(0.100000,-0.100000)"
fill="#203894" stroke="none">
<path d="M1675 3109 c-154 -23 -343 -87 -477 -162 -38 -21 -68 -40 -68 -43 0
-2 35 13 78 34 262 132 598 165 911 91 365 -87 680 -333 841 -656 33 -68 75
-189 94 -275 4 -18 13 -28 25 -28 24 0 51 -31 51 -60 0 -13 -13 -38 -29 -55
l-29 -30 14 -110 c7 -60 13 -140 14 -177 0 -38 4 -68 8 -68 21 0 62 231 62
350 1 512 -357 970 -885 1135 -60 19 -150 41 -199 50 -96 16 -311 18 -411 4z"/>
<path d="M1750 2905 c-138 -20 -318 -79 -414 -136 -51 -30 -45 -34 12 -6 248
125 629 143 896 42 215 -81 382 -202 506 -366 65 -87 142 -235 160 -310 l12
-47 41 5 c23 3 44 7 45 9 11 8 -73 216 -114 286 -95 159 -281 327 -459 416
-196 97 -466 140 -685 107z"/>
<path d="M0 1860 l0 -455 51 80 c28 44 72 114 96 155 25 41 62 102 83 136 l38
61 -72 129 c-40 71 -101 179 -134 239 l-62 110 0 -455z"/>
<path d="M538 2163 c-69 -256 -118 -441 -118 -447 0 -4 57 -5 127 -4 l127 3
15 50 c8 28 28 104 46 170 l32 120 74 8 c110 12 285 2 316 -18 23 -16 25 -21
20 -69 -6 -53 -110 -434 -129 -470 -17 -33 -41 -57 -68 -69 -15 -7 -145 -13
-334 -17 l-309 -5 -28 -110 c-16 -60 -29 -114 -29 -118 0 -5 154 -7 343 -5
319 4 346 5 407 26 129 42 224 139 279 283 38 98 141 507 142 562 0 35 2 38 9
20 8 -20 16 -23 70 -23 54 0 61 -2 56 -17 -3 -10 -37 -137 -76 -283 -39 -146
-89 -331 -111 -412 -21 -81 -39 -149 -39 -152 0 -4 58 -6 128 -6 l128 0 53
198 c29 108 75 280 102 382 27 102 56 209 64 237 l15 52 158 3 157 3 27 103
c15 57 28 105 30 107 2 2 58 0 125 -5 148 -10 192 -27 254 -99 41 -48 119
-166 119 -182 0 -15 -64 -18 -320 -15 -146 2 -224 2 -175 0 121 -5 379 -24
384 -30 2 -2 -17 -26 -43 -54 -45 -48 -65 -83 -81 -140 -3 -14 7 -2 24 26 37
63 117 136 189 171 46 23 61 25 118 20 78 -8 140 -39 167 -84 22 -38 33 -175
41 -497 l5 -209 -52 7 c-29 3 -116 6 -194 6 l-143 0 0 30 0 30 148 0 c176 0
185 4 202 85 15 72 7 96 -9 28 -20 -84 -25 -86 -234 -96 -234 -11 -483 -5
-499 11 -7 7 -39 11 -82 11 l-71 -2 65 -7 c36 -3 76 -13 90 -20 18 -11 68 -14
190 -15 l165 0 3 -28 3 -27 -383 -1 c-211 -1 -428 -4 -483 -8 l-100 -6 169 -8
c206 -9 1010 -7 1196 2 74 4 119 8 99 9 l-36 2 -7 208 c-10 284 -24 456 -42
501 -23 57 -102 99 -191 100 l-52 1 -58 88 c-78 117 -138 177 -188 190 -22 6
-100 14 -172 18 -73 3 -133 10 -133 15 0 5 -364 9 -828 9 l-827 0 -37 -137z"/>
<path d="M2914 2046 c-39 -17 -52 -36 -26 -36 10 0 44 5 76 12 50 10 59 9 74
-6 14 -13 14 -20 4 -36 -10 -16 -10 -20 1 -20 21 0 49 36 45 57 -7 40 -109 57
-174 29z"/>
<path d="M2799 1850 c-52 -101 -79 -124 -171 -145 -137 -31 -158 -72 -31 -61
190 16 233 55 259 239 9 70 -9 59 -57 -33z"/>
<path d="M1860 1680 c0 -12 232 -12 325 0 43 5 5 7 -132 9 -123 0 -193 -3
-193 -9z"/>
<path d="M2545 1530 c-228 -49 -243 -56 -252 -132 -6 -47 0 -47 25 4 12 23 28
37 55 46 65 21 342 65 368 59 13 -3 45 -20 72 -36 52 -34 57 -52 30 -104 -16
-31 -16 -32 3 -18 86 66 92 92 35 144 -85 77 -129 82 -336 37z"/>
<path d="M2003 1273 c15 -2 39 -2 55 0 15 2 2 4 -28 4 -30 0 -43 -2 -27 -4z"/>
<path d="M326 1075 c-3 -8 -15 -15 -27 -15 -21 0 -21 -1 -5 -19 12 -13 15 -27
11 -41 -6 -20 -5 -21 14 -11 16 9 26 9 42 0 19 -10 20 -9 14 11 -4 14 -1 28
11 41 16 18 16 19 -9 19 -17 0 -27 5 -27 15 0 8 -4 15 -9 15 -5 0 -11 -7 -15
-15z"/>
<path d="M521 1040 c-6 -28 -11 -53 -11 -55 0 -3 18 -5 40 -5 22 0 40 5 40 10
0 6 -14 10 -31 10 -41 0 -33 24 9 28 37 4 34 22 -3 22 -36 0 -20 28 18 33 27
3 26 4 -10 5 l-41 2 -11 -50z"/>
<path d="M667 1084 c-15 -15 -6 -41 18 -52 14 -6 25 -16 25 -22 0 -14 -47 -12
-54 3 -3 6 -5 3 -3 -8 4 -38 77 -27 77 11 0 8 -11 20 -25 26 -26 12 -34 38
-12 38 7 0 19 -6 26 -12 11 -11 13 -10 9 2 -5 16 -49 26 -61 14z"/>
<path d="M801 1080 c14 -8 15 -17 8 -47 -11 -48 -11 -53 0 -53 5 0 12 15 16
33 11 57 16 66 33 70 9 3 -3 5 -28 6 -33 0 -41 -2 -29 -9z"/>
<path d="M916 1073 c-3 -10 -8 -35 -12 -55 l-6 -38 41 0 c22 0 41 5 41 10 0 6
-13 10 -30 10 -20 0 -30 5 -30 15 0 10 11 15 35 15 19 0 35 5 35 10 0 6 -14
10 -31 10 -42 0 -33 23 12 31 l34 6 -42 2 c-32 1 -43 -3 -47 -16z"/>
<path d="M1058 1081 c10 -6 12 -21 6 -56 -4 -31 -3 -46 3 -42 6 4 13 25 17 47
5 29 13 43 29 50 18 7 14 9 -23 9 -28 1 -40 -2 -32 -8z"/>
<path d="M1164 1040 c-6 -28 -7 -53 -3 -56 8 -5 15 12 25 69 10 56 -11 44 -22
-13z"/>
<path d="M1244 1064 c-23 -35 -9 -78 27 -82 26 -3 58 23 44 36 -4 4 -10 1 -12
-5 -6 -16 -39 -17 -48 -2 -19 30 25 83 49 59 16 -16 30 -12 16 5 -20 24 -57
18 -76 -11z"/>
<path d="M1405 1065 c-8 -14 -22 -37 -31 -51 -18 -30 -12 -43 10 -21 16 15 56
12 56 -4 0 -5 5 -9 10 -9 7 0 9 14 5 38 -14 81 -24 90 -50 47z m25 -25 c0 -11
-7 -20 -15 -20 -13 0 -14 4 -5 20 6 11 13 20 15 20 3 0 5 -9 5 -20z"/>
<path d="M1695 1046 c-15 -25 -24 -51 -22 -58 4 -10 6 -10 6 0 1 6 14 12 30
12 16 0 31 -6 34 -12 2 -7 7 -10 11 -7 11 10 -8 102 -21 106 -6 2 -23 -16 -38
-41z m38 -6 c4 -15 0 -20 -14 -20 -17 0 -18 3 -9 20 6 11 12 20 14 20 2 0 6
-9 9 -20z"/>
<path d="M1825 1056 c-10 -52 -3 -71 27 -74 30 -4 52 22 63 76 10 50 -11 38
-24 -13 -10 -39 -15 -45 -37 -45 -27 0 -28 5 -8 73 3 9 1 17 -5 17 -5 0 -13
-15 -16 -34z"/>
<path d="M1978 1083 c9 -3 11 -19 6 -54 -8 -62 2 -64 17 -3 8 30 19 49 33 54
16 7 11 9 -24 9 -25 -1 -39 -3 -32 -6z"/>
<path d="M2097 1072 c-21 -23 -22 -65 -1 -82 38 -32 104 35 78 78 -16 24 -57
27 -77 4z m47 2 c34 -13 12 -74 -26 -74 -24 0 -28 41 -6 68 12 14 11 14 32 6z"/>
<path d="M2237 1061 c-3 -16 -9 -41 -13 -56 -5 -20 -4 -26 5 -21 6 4 11 18 11
32 0 13 5 24 10 24 6 0 10 -13 10 -30 0 -42 12 -38 38 13 l21 42 -5 -45 c-7
-57 11 -34 21 28 5 33 4 42 -8 42 -8 0 -20 -13 -27 -30 -7 -16 -16 -30 -21
-30 -5 0 -9 14 -9 30 0 39 -26 40 -33 1z"/>
<path d="M2413 1082 c-24 -15 -33 -58 -17 -81 25 -35 73 -21 88 26 14 45 -31
80 -71 55z m47 -17 c18 -22 -2 -65 -30 -65 -28 0 -35 25 -16 55 19 29 29 31
46 10z"/>
<path d="M2553 1078 c13 -11 15 -20 8 -51 -5 -20 -5 -39 -1 -42 4 -3 13 17 20
44 7 31 18 52 28 54 10 3 -3 5 -27 6 -38 1 -42 -1 -28 -11z"/>
<path d="M2661 1040 c-13 -61 -13 -60 -2 -60 5 0 12 17 15 38 4 20 9 45 12 55
3 9 1 17 -4 17 -6 0 -15 -23 -21 -50z"/>
<path d="M2733 1073 c3 -10 8 -35 12 -55 3 -21 12 -38 18 -38 7 0 25 25 40 55
32 65 23 74 -12 12 l-25 -42 -9 43 c-4 23 -13 42 -18 42 -6 0 -8 -8 -6 -17z"/>
<path d="M2868 1041 c-31 -53 -35 -69 -15 -54 24 20 57 22 67 5 8 -14 9 -12
10 9 0 44 -12 89 -24 89 -6 0 -23 -22 -38 -49z m42 -1 c0 -11 -7 -20 -15 -20
-17 0 -18 2 -9 24 9 23 24 20 24 -4z"/>
<path d="M3095 1078 c-4 -10 -16 -18 -26 -18 -20 0 -26 -15 -9 -25 6 -3 10
-17 10 -31 0 -21 2 -23 19 -12 15 9 23 9 35 -1 14 -12 16 -10 16 12 0 14 5 29
10 32 16 10 12 25 -6 25 -9 0 -23 8 -30 18 -12 16 -13 16 -19 0z"/>
</g>
</svg>
