<?xml version="1.0" standalone="no"?>
<!DOCTYPE svg PUBLIC "-//W3C//DTD SVG 20010904//EN"
 "http://www.w3.org/TR/2001/REC-SVG-20010904/DTD/svg10.dtd">
<svg version="1.0" xmlns="http://www.w3.org/2000/svg"
 width="24.000000pt" height="24.000000pt" viewBox="0 0 24.000000 24.000000"
 preserveAspectRatio="xMidYMid meet">

<g transform="translate(0.000000,24.000000) scale(0.100000,-0.100000)"
fill="#354C9C" stroke="none">
<path d="M24 207 c-3 -8 -4 -52 -2 -98 l3 -84 68 -3 c65 -3 67 -2 67 22 0 42
-10 56 -41 56 -22 0 -29 5 -29 20 0 15 7 20 29 20 30 0 41 14 41 56 0 23 -3
24 -65 24 -46 0 -67 -4 -71 -13z"/>
<path d="M167 164 c-3 -3 -3 -12 0 -20 4 -10 -4 -14 -31 -14 -20 0 -36 -4 -36
-10 0 -5 16 -10 36 -10 27 0 35 -4 31 -14 -3 -8 -3 -17 0 -20 10 -9 43 25 43
44 0 19 -33 53 -43 44z"/>
</g>
</svg>
